# xmcd
#
# Track frame offsets: 
#        150
#        10604
#        20956
#        33752
#        46033
#        60516
#        73130
#        87154
#        99848
#        109522
#        121543
#        131881
#        146949
#        158113
#        169763
#        181108
#        191170
#        203982
#        215562
#        225746
#        238276
#        248209
#        258071
#        269314
#        280487
#
# Disc length: 3899 seconds
#
# Revision: 6
# Processed by: cddbd v1.5.2PL0 Copyright (c) Steve Scherf et al.
# Submitted via: ExactAudioCopyFreeDBPlugin 1.0
#
DISCID=610f3919
DTITLE=Various Artist - Rhythm 'n' Blues:  Shouters [Membran Music] [
DTITLE=box set]
DYEAR=2005
DGENRE=Rhythm and Blues
TTITLE0=Chuck Willis - Let's Jump Tonight
TTITLE1=Stomp Gordon - Dragnet
TTITLE2=Roy Brown - Caldonia's Wedding Day
TTITLE3=Wally Mercer - Rock Around the Clock
TTITLE4=Big Joe Turner - My Gal's a Jockey
TTITLE5=Mr. Rain - Who Dat?
TTITLE6=Wynonie Harris - I Want My Fanny Brown
TTITLE7=Jackie Brenston - Rocket 88
TTITLE8=Melvin Smith - California Baby
TTITLE9=Eddie "Lockjaw" Davis - Mountain Oyster
TTITLE10=Willie Johnson - Say Baby
TTITLE11=Calvin Boze - Slippin' and Slidin'
TTITLE12=Big John Greer - I'm the Fat Man
TTITLE13=Jimmy Rushing - Lotsa Poppa
TTITLE14=Stomp Gordon - Oooh Yes
TTITLE15=Bob Williams - Talk to Me
TTITLE16=Louis Jordan - All for the Love of Lil
TTITLE17=Jay Hawkins - Baptize Me in Wine
TTITLE18=Tiny Bradshaw - Mailman's Sack
TTITLE19=Memphis Slim - Rockin' the House
TTITLE20=Oscar Black - Love, Love, Love
TTITLE21=H-Bomb Ferguson - Rock H-Bomb, Rock
TTITLE22=Redd Lyte and The Johnny Otis Orch. - Little Red Hen
TTITLE23=Wynonie Harris - Drinkin' the Wine Spoo-Dee-o-Dee
TTITLE24=Wild Bill Moore - Hey Spoo-Dee-O-Dee
EXTD=
EXTT0=
EXTT1=
EXTT2=
EXTT3=
EXTT4=
EXTT5=
EXTT6=
EXTT7=
EXTT8=
EXTT9=
EXTT10=
EXTT11=
EXTT12=
EXTT13=
EXTT14=
EXTT15=
EXTT16=
EXTT17=
EXTT18=
EXTT19=
EXTT20=
EXTT21=
EXTT22=
EXTT23=
EXTT24=
PLAYORDER=
